<?xml version="1.0" standalone="no"?>
<!DOCTYPE svg PUBLIC "-//W3C//DTD SVG 20010904//EN"
 "http://www.w3.org/TR/2001/REC-SVG-20010904/DTD/svg10.dtd">
<svg version="1.0" xmlns="http://www.w3.org/2000/svg"
 width="512.000000pt" height="512.000000pt" viewBox="0 0 512.000000 512.000000"
 preserveAspectRatio="xMidYMid meet">
<metadata>
Created by potrace 1.15, written by Peter Selinger 2001-2017
</metadata>
<g transform="translate(0.000000,512.000000) scale(0.100000,-0.100000)"
fill="#000000" stroke="none">
<path d="M1490 5109 c-219 -24 -463 -107 -645 -219 -196 -120 -382 -302 -507
-496 -39 -60 -111 -209 -141 -289 -100 -268 -118 -603 -47 -878 l18 -72 -33
-55 c-42 -70 -79 -157 -107 -257 -20 -68 -23 -100 -22 -253 0 -161 2 -182 27
-263 46 -149 134 -301 241 -416 93 -100 300 -222 436 -257 l69 -18 6 -46 c17
-143 39 -261 66 -352 121 -406 389 -755 751 -980 191 -119 419 -202 653 -239
103 -16 397 -16 500 0 693 109 1246 606 1420 1276 19 72 55 290 55 329 0 2 21
7 48 10 375 53 701 332 808 693 32 109 43 301 24 421 -16 100 -66 240 -117
327 -91 156 -251 307 -403 381 -73 36 -79 41 -79 70 -1 17 -12 74 -25 126
-106 419 -431 725 -855 804 -173 32 -434 12 -581 -46 l-49 -19 -37 52 c-248
344 -592 567 -1000 647 -126 25 -345 34 -474 19z m360 -420 c202 -29 423 -135
588 -284 80 -72 177 -200 229 -300 61 -119 93 -158 155 -189 74 -37 121 -34
205 11 216 116 291 139 440 130 174 -9 305 -68 428 -193 122 -123 185 -278
185 -457 0 -170 34 -218 199 -280 215 -82 353 -220 396 -398 65 -263 -98 -536
-372 -628 -100 -33 -108 -31 -123 37 -20 91 -78 249 -127 347 -295 589 -888
955 -1548 955 -307 0 -626 -87 -881 -240 -382 -229 -657 -584 -776 -1002 -18
-60 -37 -108 -43 -108 -7 0 -37 12 -67 28 -156 78 -259 210 -294 372 -35 166
2 307 119 454 86 108 95 162 47 303 -190 568 107 1170 683 1387 175 66 355 83
557 55z m765 -1689 c397 -37 749 -247 967 -578 291 -440 281 -1028 -27 -1457
-146 -204 -372 -377 -603 -460 -166 -60 -232 -70 -452 -69 -188 0 -213 2 -300
26 -380 103 -657 321 -839 660 -96 177 -143 375 -142 598 1 346 131 658 378
906 237 237 516 358 888 383 11 0 70 -4 130 -9z"/>
<path d="M2420 2659 c-56 -25 -86 -53 -113 -104 -21 -39 -22 -53 -25 -430 -3
-265 0 -407 8 -442 15 -69 57 -125 117 -154 47 -23 54 -24 318 -24 259 0 272
1 311 22 88 47 129 123 122 224 -6 78 -43 133 -117 171 -50 26 -61 28 -182 28
l-129 0 0 261 c0 309 -5 335 -69 399 -71 70 -156 88 -241 49z"/>
</g>
</svg>
